<svg xmlns="http://www.w3.org/2000/svg" width="1600" height="900" viewBox="0 0 1600 900" role="img" aria-label="Suivi et trace explicable AutoFlow">
 <defs><marker id="a" viewBox="0 0 10 10" refX="9" refY="5" markerWidth="7" markerHeight="7" orient="auto"><path d="M0 0L10 5L0 10z" fill="#62d2c8"/></marker><style>.h{font:700 34px Arial;fill:#fffdf7}.sub{font:400 19px Arial;fill:#b7cbd4}.t{font:700 18px Arial;fill:#fff}.s{font:400 15px Arial;fill:#b7cbd4}.b{font:600 14px Arial;fill:#9de5de}.f{fill:none;stroke:#62d2c8;stroke-width:3;marker-end:url(#a)}</style></defs>
 <rect width="1600" height="900" fill="#0b2434"/><text x="76" y="78" class="h">Suivi en direct — rendre les décisions vérifiables</text><text x="76" y="112" class="sub">Un même écran relie l’évènement métier, le chemin exécuté et la règle qui l’a déclenché.</text>
 <g><rect x="76" y="160" width="388" height="660" rx="24" fill="#123448" stroke="#315e70"/><text x="112" y="209" class="t">Flux d’évènements</text><text x="112" y="238" class="s">A-0003 · 10:32:41</text>
  <circle cx="120" cy="292" r="9" fill="#62d2c8"/><text x="145" y="297" class="t">Demande reçue</text><text x="145" y="322" class="s">Instagram · client régulier</text><path d="M120 332V369" stroke="#547888" stroke-width="2"/>
  <circle cx="120" cy="387" r="9" fill="#62d2c8"/><text x="145" y="392" class="t">Intake terminé</text><text x="145" y="417" class="s">dates ambiguës · confiance 0,55</text><path d="M120 427V464" stroke="#547888" stroke-width="2"/>
  <circle cx="120" cy="482" r="9" fill="#f6b65b"/><text x="145" y="487" class="t">Interruption humaine</text><text x="145" y="512" class="s">champs manquants</text><path d="M120 522V559" stroke="#547888" stroke-width="2"/>
  <circle cx="120" cy="577" r="9" fill="#62d2c8"/><text x="145" y="582" class="t">Disponibilité vérifiée</text><text x="145" y="607" class="s">CIT-03 · 460 MAD</text><path d="M120 617V654" stroke="#547888" stroke-width="2"/>
  <circle cx="120" cy="672" r="9" fill="#f6b65b"/><text x="145" y="677" class="t">Escalade manager</text><text x="145" y="702" class="s">remise demandée</text><rect x="112" y="748" width="307" height="45" rx="12" fill="#0d9f98"/><text x="266" y="777" text-anchor="middle" class="t">TOUT EST HORODATÉ</text></g>
 <g><rect x="502" y="160" width="570" height="660" rx="24" fill="#102c3d" stroke="#315e70"/><text x="542" y="209" class="t">Chemin réellement traversé</text><text x="542" y="238" class="s">le graphe est exposé par l’API et identique au code</text>
  <g fill="#1a4960" stroke="#62d2c8" stroke-width="3"><rect x="548" y="306" width="130" height="62" rx="15"/><rect x="748" y="306" width="130" height="62" rx="15"/><rect x="948" y="306" width="82" height="62" rx="15"/><rect x="748" y="465" width="150" height="62" rx="15"/><rect x="748" y="624" width="150" height="62" rx="15"/></g>
  <text x="613" y="344" text-anchor="middle" class="t">Intake</text><text x="813" y="344" text-anchor="middle" class="t">Clarify</text><text x="989" y="344" text-anchor="middle" class="t">?</text><text x="823" y="503" text-anchor="middle" class="t">Human review</text><text x="823" y="662" text-anchor="middle" class="t">Availability</text>
  <path class="f" d="M678 337H748"/><path class="f" d="M878 337H948"/><path class="f" d="M989 368V434H823V465"/><path class="f" d="M823 527V624"/><path d="M823 686V741" class="f"/><rect x="748" y="741" width="150" height="48" rx="14" fill="#3d2d16" stroke="#f6b65b" stroke-width="3"/><text x="823" y="771" text-anchor="middle" class="t">Sensitive</text></g>
 <g><rect x="1110" y="160" width="414" height="660" rx="24" fill="#123448" stroke="#315e70"/><text x="1150" y="209" class="t">Règles évaluées</text><text x="1150" y="238" class="s">valeur mesurée · seuil · branche</text>
  <g><rect x="1142" y="282" width="350" height="110" rx="14" fill="#183f53"/><text x="1164" y="315" class="b">dates_ambiguous</text><text x="1164" y="346" class="s">0,55 &lt; 0,70 · clarification</text><rect x="1164" y="359" width="130" height="15" rx="7" fill="#f6b65b"/><rect x="1299" y="359" width="160" height="15" rx="7" fill="#365e6f"/></g>
  <g><rect x="1142" y="416" width="350" height="110" rx="14" fill="#183f53"/><text x="1164" y="449" class="b">discount_requested</text><text x="1164" y="480" class="s">vrai · validation manager</text><rect x="1164" y="493" width="292" height="15" rx="7" fill="#f6b65b"/></g>
  <g><rect x="1142" y="550" width="350" height="110" rx="14" fill="#183f53"/><text x="1164" y="583" class="b">availability.status</text><text x="1164" y="614" class="s">available · devis autorisé</text><rect x="1164" y="627" width="292" height="15" rx="7" fill="#62d2c8"/></g>
  <rect x="1142" y="704" width="350" height="67" rx="14" fill="#e6f7f4"/><text x="1165" y="733" font-family="Arial" font-size="15" font-weight="700" fill="#0b5f5a">Décision lisible pour l’équipe et le jury</text><text x="1165" y="757" font-family="Arial" font-size="14" fill="#315e70">raison, seuil et branche sont visibles.</text></g>
</svg>
